<?xml version="1.0" encoding="UTF-8"?>
<svg id="Layer_1" data-name="Layer 1" xmlns="http://www.w3.org/2000/svg" viewBox="0 0 66 66">
  <defs>
    <style>
      .cls-1 {
        stroke: #000;
        stroke-miterlimit: 10;
        stroke-width: .75px;
      }
    </style>
  </defs>
  <path class="cls-1" d="M55.99,3.47H10.01c-3.36,0-6.09,2.73-6.09,6.09v46.89c0,3.36,2.73,6.09,6.09,6.09h45.98c3.36,0,6.09-2.73,6.09-6.09V9.56c0-3.36-2.73-6.09-6.09-6.09ZM5.27,9.56c0-2.61,2.12-4.73,4.73-4.73h45.98c2.61,0,4.73,2.12,4.73,4.73v3.47H5.27v-3.47ZM60.73,56.44c0,2.61-2.12,4.73-4.73,4.73H10.01c-2.61,0-4.73-2.12-4.73-4.73V14.38h55.45v42.06Z"/>
  <circle class="cls-1" cx="12.39" cy="8.93" r=".9"/>
  <circle class="cls-1" cx="17.09" cy="8.93" r=".9"/>
  <circle class="cls-1" cx="21.78" cy="8.93" r=".9"/>
  <path class="cls-1" d="M54.25,8.25h-18.46c-.37,0-.68.3-.68.68s.3.68.68.68h18.46c.37,0,.68-.3.68-.68s-.3-.68-.68-.68Z"/>
  <path class="cls-1" d="M14.17,44.08h22.48c.16,0,.31,0,.47-.03.93-.1,1.8-.5,2.48-1.14.11-.11.22-.22.32-.34.65-.78,1.02-1.76,1.02-2.77v-15.71c0-2.36-1.92-4.28-4.28-4.28H14.17c-2.36,0-4.28,1.92-4.28,4.28v15.71c0,.86.26,1.69.75,2.42.8,1.16,2.12,1.86,3.53,1.86ZM13.52,42.65c-.07-.02-.13-.04-.2-.06-.14-.04-.28-.09-.41-.16-.07-.04-.14-.08-.21-.12-.12-.07-.23-.15-.34-.23-.07-.05-.13-.11-.19-.16-.03-.03-.06-.07-.1-.11l6.74-9.19c.21-.29.55-.46.91-.46s.69.17.91.46l7.4,10.1.02.02h-13.88c-.22,0-.44-.04-.65-.09ZM29.71,42.73l-2.52-3.45,3.41-3.41c.43-.43,1.17-.43,1.59,0l6.25,6.25h0s-.03.03-.04.04c-.14.1-.29.19-.44.27-.05.03-.11.05-.16.07-.13.05-.26.1-.39.13-.05,0-.11.03-.17.04-.19.04-.38.06-.57.06h-6.95ZM11.24,24.09c0-1.62,1.31-2.93,2.93-2.93h22.49c1.62,0,2.93,1.31,2.93,2.93v15.71c0,.45-.11.87-.3,1.26l-6.15-6.15c-.94-.94-2.57-.94-3.51,0l-3.26,3.26-4.67-6.37c-.47-.64-1.2-1.01-2-1.01s-1.53.37-2,1.01l-6.37,8.69c-.06-.23-.09-.46-.09-.7v-15.7Z"/>
  <path class="cls-1" d="M28.99,30.11c1.8,0,3.27-1.47,3.27-3.27s-1.47-3.27-3.27-3.27-3.27,1.47-3.27,3.27c-.01,1.81,1.46,3.27,3.27,3.27ZM28.99,24.92c1.06,0,1.92.86,1.92,1.92s-.86,1.92-1.92,1.92-1.92-.86-1.92-1.92.86-1.92,1.92-1.92Z"/>
  <path class="cls-1" d="M45.02,24.92h12.64c.37,0,.68-.3.68-.68s-.3-.68-.68-.68h-12.64c-.37,0-.68.3-.68.68s.31.68.68.68Z"/>
  <path class="cls-1" d="M45.02,31.12h12.64c.37,0,.68-.3.68-.68s-.3-.68-.68-.68h-12.64c-.37,0-.68.3-.68.68s.31.68.68.68Z"/>
  <path class="cls-1" d="M45.02,37.31h12.64c.37,0,.68-.3.68-.68s-.3-.68-.68-.68h-12.64c-.37,0-.68.3-.68.68s.31.68.68.68Z"/>
  <path class="cls-1" d="M45.02,43.5h12.64c.37,0,.68-.3.68-.68s-.3-.68-.68-.68h-12.64c-.37,0-.68.3-.68.68s.31.68.68.68Z"/>
  <path class="cls-1" d="M9.45,49.7h47.09c.37,0,.68-.3.68-.68s-.3-.68-.68-.68H9.45c-.37,0-.68.3-.68.68.01.38.31.68.68.68Z"/>
  <path class="cls-1" d="M56.55,54.54h-18.37c-.37,0-.68.3-.68.68s.3.68.68.68h18.36c.37,0,.68-.3.68-.68s-.3-.68-.67-.68Z"/>
  <path class="cls-1" d="M32.86,54.54h-11.8c-.37,0-.68.3-.68.68s.3.68.68.68h11.79c.37,0,.68-.3.68-.68s-.3-.68-.67-.68Z"/>
  <path class="cls-1" d="M9.45,55.89h7.8c.37,0,.68-.3.68-.68s-.3-.68-.68-.68h-7.8c-.37,0-.68.3-.68.68.01.38.31.68.68.68Z"/>
</svg>