<svg id="Layer_1" enable-background="new 0 0 512 512" height="512" viewBox="0 0 512 512" width="512" xmlns="http://www.w3.org/2000/svg"><g><g><path d="m311.993.009c-158.301-1.521-255.188 181.528-166.248 311.036-.085.018-132.934 126.625-133.026 126.676-27.392 27.271-7.458 74.539 30.776 74.278 11.144 0 22.29-4.242 30.775-12.726.288-.06 126.415-132.922 126.676-133.026 129.554 88.951 312.56-7.987 311.033-166.253.002-110.271-89.711-199.985-199.986-199.985zm-251.943 485.201c-22.865 21.013-54.274-10.425-33.269-33.269l90.892-86.551 28.927 28.926zm100.347-105.381-28.235-28.234 25.621-24.397c8.128 9.835 17.176 18.884 27.011 27.011zm151.596.156c-99.246 0-179.989-80.743-179.989-179.989 9.048-238.451 350.965-238.386 359.978.002 0 99.245-80.743 179.987-179.989 179.987z"/><path d="m311.993 40.007c-25.924 0-51.687 6.357-74.502 18.384-4.886 2.575-6.759 8.623-4.184 13.508s8.622 6.762 13.509 4.183c17.016-8.969 35.912-14.331 55.178-15.716v26.95c0 5.523 4.478 9.999 9.999 9.999 5.522 0 9.999-4.477 9.999-9.999v-26.956c69.24 4.91 124.728 60.398 129.638 129.638h-26.957c-5.522 0-9.999 4.477-9.999 9.999 0 5.523 4.478 9.999 9.999 9.999h26.958c-4.91 69.24-60.398 124.728-129.638 129.638v-26.957c0-5.523-4.478-9.999-9.999-9.999-5.522 0-9.999 4.477-9.999 9.999v26.957c-69.24-4.91-124.728-60.398-129.638-129.638h26.957c5.522 0 9.999-4.477 9.999-9.999 0-5.523-4.478-9.999-9.999-9.999h-26.95c1.384-19.267 6.746-38.161 15.712-55.17 2.576-4.885.703-10.933-4.182-13.509-4.887-2.575-10.934-.702-13.509 4.183-56.489 104.172 22.954 235.944 141.611 234.484 211.925-8.031 211.926-311.955-.003-319.979z"/><path d="m279.971 237.556 98.788 42.338c3.722 1.602 8.109.786 11.01-2.12 2.892-2.892 3.731-7.252 2.12-11.009l-42.333-98.779c-.699-1.778-3.336-4.844-5.531-5.545l-98.799-42.342c-3.759-1.61-8.118-.772-11.01 2.12s-3.731 7.252-2.12 11.01l42.336 98.785c.942 2.238 3.797 4.65 5.539 5.542zm21.255-12.649 35.677-35.677 26.758 62.435zm21.536-49.819-35.677 35.677-26.758-62.435z"/><path d="m199.205 101.339c4.076 3.707 10.404 3.42 14.128-.675 8.565-10.101-5.56-22.939-14.798-13.452-3.719 4.084-3.418 10.411.67 14.127z"/></g></g></svg>