<svg id="Layer_45" viewBox="0 0 32 32" xmlns="http://www.w3.org/2000/svg" data-name="Layer 45"><path d="m27.5 14c0-.0175781-.0128784-.031189-.0147095-.0484009-.0032349-.0328979-.0089111-.0611572-.0184937-.0927734-.0048828-.0166016.0018311-.0339966-.0048828-.0502319-.0066528-.0161133-.0236206-.0236206-.0317993-.0386963-.0157471-.02948-.0319824-.0537109-.0531616-.0795288-.0107422-.0132446-.0112305-.0316772-.0234375-.0438843l-2.8535156-2.8535156v-2.7929688c0-1.3789062-1.1210938-2.5-2.5-2.5h-2.7929688l-2.8535156-2.8535156c-.1953125-.1953125-.5117188-.1953125-.7070312 0l-2.8535156 2.8535156h-2.7929688c-1.3789062 0-2.5 1.1210938-2.5 2.5v2.7929688l-2.8535156 2.8535156c-.012207.012207-.0126953.0306396-.0234375.0438843-.0211792.0258179-.0374146.0500488-.0531616.0795288-.0081787.0150757-.0251465.022583-.0317993.0386963-.0067139.0162354 0 .0336304-.0048828.0502319-.0095825.0316162-.0152588.0598755-.0184937.0927734-.0018311.0172119-.0147095.0308228-.0147095.0484009v15c0 .0342407.0219116.0614624.0286255.0941772.0062866.0325317-.00354.0658569.0094604.097229.0066528.0161133.0236206.0236206.0317993.0386963.0232544.0435791.0551147.0748291.0901489.1098633s.0662842.0668945.1098633.0901489c.0150757.0081787.022583.0251465.0386963.0317993.0615234.0253906.1269531.0380859.1914062.0380859h22c.0644531 0 .1298828-.0126953.1914062-.0380859.0161133-.0066528.0236206-.0236206.0386963-.0317993.0435791-.0232544.0748291-.0551147.1098633-.0901489s.0668945-.0662842.0901489-.1098633c.0081787-.0150757.0251465-.022583.0317993-.0386963.0130005-.0313721.0031738-.0646973.0094604-.097229.0067139-.0327148.0286255-.0599365.0286255-.0941772v-15zm-3 .5h1.2929688l-1.2929688 1.2929688zm-.1464844 2.8535156 2.1464844-2.1464844v12.5859375l-6.2929688-6.2929688 4.1464844-4.1464844zm1.4394531-3.8535156h-1.2929688v-1.2929688zm-9.7929687-9.7929688 1.7929688 1.7929688h-3.5859375l1.7929688-1.7929688zm-7.5 4.2929688c0-.8271484.6728516-1.5 1.5-1.5h12c.8271484 0 1.5.6728516 1.5 1.5v8.7929688l-4.3535156 4.3535156-3.1464844 3.1464844-3.1464844-3.1464844-4.3535156-4.3535156zm-1 7.7929688-1.2929688-1.2929688h1.2929688zm-2-.5859375 2.1464844 2.1464844 4.1464844 4.1464844-6.2929688 6.2929688v-12.5859375zm2-3v1.2929688h-1.2929688zm-1.2929688 16.2929688 6.2929688-6.2929688 3.1464844 3.1464844c.0976562.0976562.2255859.1464844.3535156.1464844s.2558594-.0488281.3535156-.1464844l3.1464844-3.1464844 6.2929688 6.2929688zm4.2929688-19.5c0-.2763672.2236328-.5.5-.5h10c.2763672 0 .5.2236328.5.5s-.2236328.5-.5.5h-10c-.2763672 0-.5-.2236328-.5-.5zm0 3c0-.2763672.2236328-.5.5-.5h10c.2763672 0 .5.2236328.5.5s-.2236328.5-.5.5h-10c-.2763672 0-.5-.2236328-.5-.5zm0 3c0-.2763672.2236328-.5.5-.5h10c.2763672 0 .5.2236328.5.5s-.2236328.5-.5.5h-10c-.2763672 0-.5-.2236328-.5-.5zm9 3c0 .2763672-.2236328.5-.5.5h-6c-.2763672 0-.5-.2236328-.5-.5s.2236328-.5.5-.5h6c.2763672 0 .5.2236328.5.5z"/></svg>