<?xml version="1.0" encoding="UTF-8"?>
<svg id="svg861" xmlns="http://www.w3.org/2000/svg" xmlns:xlink="http://www.w3.org/1999/xlink" viewBox="0 0 682.67 682.67">
  <defs>
    <style>
      .cls-1, .cls-2 {
        fill: none;
      }

      .cls-2 {
        stroke: #00e075;
        stroke-linecap: round;
        stroke-linejoin: round;
        stroke-width: 20px;
      }

      .cls-3 {
        clip-path: url(#clippath);
      }
    </style>
    <clipPath id="clippath">
      <rect class="cls-1" width="682.67" height="682.67"/>
    </clipPath>
  </defs>
  <g id="g867">
    <g id="g869">
      <g class="cls-3">
        <g id="g871">
          <g id="g877">
            <path id="path879" class="cls-2" d="M458.91,202.39h128.25c17.71,0,32.07,14.36,32.07,32.06v374.09"/>
          </g>
          <g id="g881">
            <path id="path883" class="cls-2" d="M63.44,608.54V234.45c0-17.71,14.36-32.06,32.06-32.06h128.26"/>
          </g>
          <g id="g885">
            <path id="path887" class="cls-2" d="M191.7,608.54h480.96v21.38c0,11.81-9.57,21.38-21.38,21.38H31.38c-11.81,0-21.38-9.57-21.38-21.38v-21.38h181.7Z"/>
          </g>
          <g id="g889">
            <path id="path891" class="cls-2" d="M375.86,352.02c25.35-39.58,40.29-87.34,40.29-138.95,0-71.95-28.93-136.52-74.82-181.7-45.89,45.18-74.82,109.75-74.82,181.7,0,51.61,14.94,99.37,40.29,138.95h69.06Z"/>
          </g>
          <g id="g893">
            <path id="path895" class="cls-2" d="M384.09,394.77h-85.51l10.69-42.75h64.13l10.69,42.75Z"/>
          </g>
          <g id="g897">
            <path id="path899" class="cls-2" d="M266.52,266.52l-46.01,55.21c-4.8,5.76-7.43,13.03-7.43,20.53v31.14l76.13-42.96"/>
          </g>
          <g id="g901">
            <path id="path903" class="cls-2" d="M416.15,266.52l46.01,55.21c4.8,5.76,7.43,13.03,7.43,20.53v31.14l-76.13-42.96"/>
          </g>
          <g id="g905">
            <path id="path907" class="cls-2" d="M287.89,116.88h106.88"/>
          </g>
          <g id="g909">
            <path id="path911" class="cls-2" d="M562.65,608.54c2.02-6.78,3.14-13.94,3.14-21.38,0-41.32-33.5-74.82-74.82-74.82-8.58,0-16.78,1.51-24.46,4.17-7.19-21.02-26.9-36.24-50.36-36.24-13.08,0-24.91,4.89-34.2,12.69,1.26-4.03,2.13-8.24,2.13-12.69,0-23.61-19.14-42.75-42.75-42.75s-42.75,19.14-42.75,42.75c0,4.45.87,8.66,2.13,12.69-9.29-7.81-21.12-12.69-34.2-12.69-23.46,0-43.17,15.21-50.36,36.24-7.67-2.66-15.88-4.17-24.46-4.17-41.32,0-74.82,33.5-74.82,74.82,0,7.43,1.12,14.6,3.14,21.38"/>
          </g>
          <g id="g913">
            <path id="path915" class="cls-2" d="M373.4,202.39c0,17.71-14.36,32.06-32.06,32.06s-32.07-14.36-32.07-32.06,14.36-32.06,32.07-32.06,32.06,14.36,32.06,32.06Z"/>
          </g>
        </g>
      </g>
    </g>
  </g>
</svg>