<?xml version="1.0" encoding="UTF-8"?>
<svg id="Layer_1" data-name="Layer 1" xmlns="http://www.w3.org/2000/svg" viewBox="0 0 512 512">
  <defs>
    <style>
      .cls-1 {
        fill: #2453fa;
      }
    </style>
  </defs>
  <path class="cls-1" d="M96.32,346.37c0-3.87,3.13-7,7-7h169.23c3.87,0,7,3.13,7,7s-3.13,7-7,7H103.32c-3.87,0-7-3.13-7-7ZM103.32,301.48h123.63c3.87,0,7-3.13,7-7s-3.13-7-7-7h-123.63c-3.87,0-7,3.13-7,7s3.13,7,7,7ZM389.85,403.73v83.06c0,8.94-7.27,16.22-16.22,16.22h-111.57c-8.94,0-16.22-7.27-16.22-16.22v-50.72c-18.57,4.32-38.01,6.51-57.9,6.51-8.25,0-16.54-.39-24.68-1.15l-86.46,60.32c-1.2.84-2.6,1.26-4,1.26s-2.74-.4-3.92-1.2c-2.4-1.62-3.55-4.56-2.9-7.38l17.36-74.77c-46.66-22.89-74.33-59.66-74.33-99.22,0-27.13,12.64-52.77,36.55-74.16,22.88-20.46,54.01-35.22,90.03-42.7,3.79-.78,7.49,1.65,8.28,5.43.79,3.79-1.65,7.49-5.43,8.28-33.13,6.87-62.8,20.87-83.54,39.42-20.86,18.65-31.89,40.69-31.89,63.72,0,35.36,26.66,68.61,71.33,88.93,3.03,1.38,4.67,4.71,3.92,7.95l-14.51,62.52,73.63-51.37c1.38-.96,3.06-1.39,4.73-1.22,8.5.88,17.19,1.33,25.84,1.33,19.97,0,39.42-2.33,57.9-6.9v-17.94c0-8.94,7.27-16.22,16.22-16.22h55.02c23.1-19.08,35.8-42.83,35.8-67.08,0-25.92-14.36-51.04-40.44-70.75-3.08-2.33-3.7-6.72-1.36-9.8,2.33-3.08,6.72-3.7,9.8-1.36,29.66,22.41,46,51.51,46,81.92,0,23.99-10.27,47.31-29.23,67.08h35.98c8.94,0,16.22,7.27,16.22,16.22h0ZM375.85,403.73c0-1.2-1.02-2.22-2.22-2.22h-111.57c-1.2,0-2.22,1.02-2.22,2.22v83.06c0,1.2,1.02,2.22,2.22,2.22h111.57c1.2,0,2.22-1.02,2.22-2.22v-83.06ZM344.82,445.25c0,2.5-1.33,4.81-3.5,6.06l-39.94,23.06c-1.08.62-2.29.94-3.5.94s-2.42-.31-3.5-.94c-2.17-1.25-3.5-3.56-3.5-6.06v-46.12c0-2.5,1.33-4.81,3.5-6.06,2.17-1.25,4.83-1.25,7,0l39.94,23.06c2.17,1.25,3.5,3.56,3.5,6.06h0ZM323.82,445.25l-18.94-10.94v21.87l18.94-10.94ZM457.32,82.16c1.19,0,2.39-.3,3.49-.94l27.04-15.61c3.35-1.93,4.49-6.21,2.56-9.56-1.93-3.35-6.21-4.49-9.56-2.56l-27.04,15.61c-3.35,1.93-4.49,6.21-2.56,9.56,1.3,2.25,3.65,3.5,6.07,3.5h0ZM412.25,50.58c1.1.64,2.31.94,3.49.94,2.42,0,4.77-1.26,6.07-3.5l16.46-28.52c1.93-3.35.79-7.63-2.56-9.56s-7.63-.79-9.56,2.56l-16.46,28.52c-1.93,3.35-.79,7.63,2.56,9.56h0ZM456.07,126.47c0,3.87,3.13,7,7,7h32.93c3.87,0,7-3.13,7-7s-3.13-7-7-7h-32.93c-3.87,0-7,3.13-7,7ZM159.51,203.29c3.72-13.89,12.59-25.48,24.97-32.63l36.61-21.14c1.61-.93,3.52-1.18,5.31-.7.71.19,1.37.49,1.98.88,37.63-28.16,67.3-60.76,84.29-92.67l-.64-1.12c-7.93-13.74-3.21-31.37,10.53-39.3,13.74-7.93,31.37-3.21,39.3,10.53l28.56,49.47c15.17-7.85,34.05-2.43,42.68,12.51,8.63,14.94,3.88,34-10.5,43.22l28.56,49.47c3.83,6.63,4.84,14.38,2.85,21.82-1.99,7.44-6.74,13.65-13.38,17.48-4.41,2.55-9.32,3.85-14.29,3.85-2.51,0-5.04-.33-7.53-1-7.44-1.99-13.65-6.74-17.48-13.38l-.64-1.12c-35.82-1.23-78.46,7.99-121.28,26.18l50.54,68.03c5.04,6.79,4.16,16.17-2.06,21.81l-11.12,10.09c-3.01,2.73-6.94,4.23-10.97,4.23-.52,0-1.04-.02-1.56-.08-4.51-.43-8.64-2.76-11.34-6.38l-52.88-70.75-1.85,1.07c-8.23,4.75-17.38,7.18-26.67,7.18-4.69,0-9.41-.62-14.07-1.87-13.89-3.72-25.48-12.59-32.63-24.97-7.15-12.38-9.03-26.85-5.31-40.74h0ZM318.71,312.05l-49.32-66.38-17.16,9.91,51.88,69.42c.45.61,1.05.78,1.47.82.38.04,1.11,0,1.77-.59l11.12-10.09c.87-.79.97-2.09.23-3.09ZM397.44,88.78l18.14,31.42c7.7-5.34,10.16-15.8,5.4-24.06-4.77-8.26-15.06-11.36-23.54-7.36ZM324.15,48.92l89.3,154.68c1.96,3.4,5.15,5.83,8.98,6.86,3.83,1.02,7.8.51,11.2-1.45,3.4-1.96,5.83-5.15,6.86-8.98,1.02-3.83.51-7.8-1.45-11.2l-89.3-154.68c-2.73-4.73-7.71-7.38-12.82-7.38-2.5,0-5.04.64-7.36,1.98-3.4,1.96-5.83,5.15-6.86,8.98s-.51,7.81,1.45,11.2h0ZM236.05,161.45l35.9,62.18c41.99-18.09,84.1-27.92,120.6-28.24l-71.74-124.27c-18.52,31.45-48.1,63.01-84.75,90.32h0ZM176.94,237.03c5.28,9.14,13.85,15.69,24.12,18.45,10.28,2.75,20.98,1.37,30.12-3.91l30.55-17.64-39.71-68.78-30.55,17.64c-9.14,5.28-15.69,13.85-18.45,24.12s-1.36,20.98,3.91,30.12h0ZM47.4,89.92c0-23.44,19.07-42.52,42.52-42.52s42.52,19.07,42.52,42.52-19.07,42.52-42.52,42.52-42.52-19.07-42.52-42.52ZM61.4,89.92c0,15.72,12.79,28.52,28.52,28.52s28.52-12.79,28.52-28.52-12.79-28.52-28.52-28.52-28.52,12.79-28.52,28.52ZM9,97.31v-14.78c0-6.54,5.32-11.86,11.85-11.86,5.79,0,8.07-4.43,8.64-5.78.56-1.36,2.08-6.1-2.02-10.2-2.24-2.24-3.47-5.22-3.47-8.38s1.23-6.15,3.47-8.38l10.45-10.45c4.62-4.62,12.14-4.62,16.77,0,4.1,4.09,8.84,2.58,10.2,2.02,1.36-.56,5.78-2.84,5.78-8.64,0-6.54,5.32-11.86,11.85-11.86h14.78c6.54,0,11.85,5.32,11.85,11.86,0,5.79,4.43,8.07,5.78,8.64,1.36.56,6.1,2.08,10.2-2.02,4.62-4.62,12.14-4.62,16.77,0l10.45,10.45c2.24,2.24,3.47,5.22,3.47,8.38s-1.23,6.15-3.47,8.38c-4.09,4.09-2.58,8.84-2.02,10.2.56,1.36,2.85,5.78,8.63,5.78,6.54,0,11.85,5.32,11.85,11.86v14.78c0,6.54-5.32,11.85-11.85,11.85-5.79,0-8.07,4.43-8.63,5.78-.56,1.36-2.08,6.1,2.02,10.2,4.62,4.62,4.62,12.14,0,16.77l-10.45,10.45c-2.24,2.24-5.22,3.47-8.38,3.47s-6.14-1.23-8.38-3.47c-4.09-4.09-8.84-2.58-10.2-2.02-1.36.56-5.78,2.85-5.78,8.64,0,6.54-5.32,11.85-11.86,11.85h-14.78c-6.54,0-11.85-5.32-11.85-11.85,0-5.8-4.42-8.09-5.78-8.65-1.36-.56-6.1-2.08-10.2,2.03-2.24,2.24-5.22,3.47-8.38,3.47s-6.15-1.23-8.38-3.47l-10.45-10.45c-2.24-2.24-3.47-5.22-3.47-8.38s1.23-6.14,3.47-8.38c4.09-4.09,2.58-8.84,2.02-10.19-.56-1.36-2.84-5.78-8.64-5.78-6.54,0-11.86-5.32-11.86-11.86h0ZM23,95.26c8.69.76,16.02,6.1,19.42,14.33,3.41,8.23,2.01,17.19-3.6,23.87l7.55,7.55c6.69-5.62,15.65-7.02,23.88-3.61,8.23,3.41,13.57,10.74,14.33,19.44h10.68c.76-8.69,6.1-16.02,14.33-19.43,8.23-3.41,17.19-2.01,23.87,3.6l7.55-7.55c-5.61-6.68-7.01-15.64-3.6-23.87,3.41-8.23,10.73-13.58,19.43-14.33v-10.68c-8.69-.76-16.02-6.1-19.43-14.33s-2.01-17.19,3.6-23.87l-7.55-7.55c-6.68,5.61-15.64,7.01-23.87,3.6-8.23-3.41-13.57-10.73-14.33-19.42h-10.68c-.76,8.69-6.1,16.02-14.33,19.42-8.23,3.41-17.19,2.01-23.87-3.6l-7.55,7.55c5.61,6.68,7.01,15.64,3.6,23.87-3.41,8.23-10.73,13.58-19.42,14.33v10.68ZM502.45,281.37c-2.47,20.73-12.44,40.45-18.16,50.36s-17.81,28.4-34.53,40.9c-10.84,8.11-21.75,12.18-32.32,12.18-7.38,0-14.6-1.99-21.52-5.98l-2.51-1.45c-4.14-2.39-7.11-6.26-8.35-10.89-1.24-4.63-.61-9.46,1.78-13.6l10.05-17.41c4.94-8.56,15.93-11.51,24.49-6.56l5.9,3.4c1.67.97,3.65.64,4.92-.81,5.5-6.27,10.56-13.39,15.05-21.16s8.12-15.72,10.8-23.61c.62-1.83-.09-3.7-1.76-4.67l-5.9-3.4c-4.14-2.39-7.11-6.26-8.35-10.89-1.24-4.63-.61-9.46,1.78-13.6l10.05-17.41c4.94-8.56,15.93-11.51,24.49-6.56l2.52,1.45c16.82,9.71,24.27,26.91,21.55,49.73h0ZM473.9,243.76l-2.51-1.45c-1.88-1.08-4.29-.44-5.37,1.44l-10.05,17.41c-.52.9-.66,1.96-.38,2.98.27,1.02.92,1.87,1.82,2.39l5.9,3.4c7.5,4.33,10.8,13.09,8.01,21.29-2.97,8.76-6.99,17.55-11.94,26.11-4.95,8.57-10.55,16.44-16.65,23.39-5.71,6.52-14.94,8.04-22.45,3.71l-5.9-3.4c-.62-.36-1.29-.53-1.96-.53-1.36,0-2.68.7-3.41,1.96l-10.05,17.41c-.52.9-.66,1.96-.38,2.98.27,1.02.92,1.87,1.82,2.39l2.51,1.45c11.92,6.88,24.5,5.15,38.46-5.29,15.26-11.42,26.62-29.46,30.79-36.69,4.17-7.23,14.13-26.09,16.38-45.01,2.06-17.31-2.73-29.07-14.65-35.95h0Z"/>
</svg>