<svg height="512" viewBox="0 0 128 128" width="512" xmlns="http://www.w3.org/2000/svg"><g><path d="m121.693 15.172h-35.593l-1.581-9.163a1.751 1.751 0 0 0 -1.725-1.452h-37.588a1.75 1.75 0 0 0 -1.725 1.452l-1.581 9.163h-35.593a1.751 1.751 0 0 0 -1.75 1.75v7.966a5.756 5.756 0 0 0 4.766 5.66v67.843a1.751 1.751 0 0 0 1.75 1.75h51.177v11.189a6.185 6.185 0 1 0 3.5 0v-11.189h51.177a1.751 1.751 0 0 0 1.75-1.75v-67.843a5.756 5.756 0 0 0 4.766-5.66v-7.966a1.751 1.751 0 0 0 -1.75-1.75zm-55.008 102.086a2.685 2.685 0 1 1 -2.685-2.684 2.688 2.688 0 0 1 2.685 2.684zm-20.006-109.201h34.642l1.23 7.115h-37.1zm-33.856 88.584v-66h102.354v66zm107.12-71.753a2.252 2.252 0 0 1 -2.25 2.25h-107.386a2.252 2.252 0 0 1 -2.25-2.25v-6.216h111.886z"/><path d="m82.175 39.317a24.309 24.309 0 0 0 -17.26 41.44c.023.025.04.054.064.078s.054.042.079.065a24.317 24.317 0 1 0 17.117-41.583zm20.734 22.573h-18.984v-18.984a20.835 20.835 0 0 1 18.984 18.984zm-22.484-18.984v20.009l-14.145 14.145a20.787 20.787 0 0 1 14.145-34.154zm1.75 41.556a20.722 20.722 0 0 1 -13.42-4.927l14.145-14.145h20.009a20.84 20.84 0 0 1 -20.734 19.072z"/><path d="m47.315 75.855h-24.063a1.75 1.75 0 1 0 0 3.5h24.063a1.75 1.75 0 0 0 0-3.5z"/><path d="m47.315 39.317h-24.063a1.75 1.75 0 0 0 0 3.5h24.063a1.75 1.75 0 0 0 0-3.5z"/><path d="m47.315 51.5h-24.063a1.75 1.75 0 1 0 0 3.5h24.063a1.75 1.75 0 0 0 0-3.5z"/><path d="m47.315 63.676h-24.063a1.75 1.75 0 1 0 0 3.5h24.063a1.75 1.75 0 0 0 0-3.5z"/></g></svg>