<?xml version="1.0" encoding="UTF-8"?>
<svg id="svg405" xmlns="http://www.w3.org/2000/svg" xmlns:xlink="http://www.w3.org/1999/xlink" viewBox="0 0 682.67 682.67">
  <defs>
    <style>
      .cls-1, .cls-2 {
        fill: none;
      }

      .cls-2 {
        stroke: #000;
        stroke-linecap: round;
        stroke-linejoin: round;
        stroke-width: 20px;
      }

      .cls-3 {
        clip-path: url(#clippath);
      }
    </style>
    <clipPath id="clippath">
      <rect class="cls-1" width="682.67" height="682.67"/>
    </clipPath>
  </defs>
  <g id="g411">
    <g id="g413">
      <g class="cls-3">
        <g id="g415">
          <g id="g421">
            <path id="path423" class="cls-2" d="M555.83,10h-184.08c-47.13,0-85.34,29-85.34,64.77v119.9"/>
          </g>
          <g id="g425">
            <path id="path427" class="cls-2" d="M316.45,358.67c10.7,7.73,23.86,12.29,38.09,12.29h121.71v59.01l77.15-59.01h33.28c35.88,0,64.96-29,64.96-64.77V74.77c0-35.77-29.09-64.77-64.96-64.77h-29.35"/>
          </g>
          <g id="g429">
            <path id="path431" class="cls-2" d="M420.55,276.03l6.7,5.42c10.62,8.59,23.86,13.28,37.52,13.28h95.06c9.01,0,16.27-7.52,15.84-16.62-.4-8.53.02-86.19.02-94.95s-7.1-15.86-15.86-15.86l-64.46-.19,7.89-18.69c8.2-19.42,6.87-41.56-3.58-59.86h0c-2.96-5.18-9.61-6.87-14.69-3.75h0c-3.12,1.92-5.02,5.32-5.02,8.99,0,16.76-6.12,32.95-17.21,45.51l-41.1,46.51"/>
          </g>
          <path id="path433" class="cls-2" d="M419.33,290.33h-53.79v-121.02h53.79v121.02Z"/>
          <g id="g435">
            <path id="path437" class="cls-2" d="M31.02,235.67v161.77c0,45.22,22.94,81.88,51.23,81.88h100.57v75.31l60.84-75.31"/>
          </g>
          <g id="g439">
            <path id="path441" class="cls-2" d="M315.02,436c1-3.98,1.53-8.14,1.53-12.42v-182.5c0-28.21-22.94-51.07-51.23-51.07H82.25c-28.29,0-51.23,22.87-51.23,51.07v21.59"/>
          </g>
          <g id="g443">
            <path id="path445" class="cls-2" d="M106.65,312.94h134.27"/>
          </g>
          <g id="g447">
            <path id="path449" class="cls-2" d="M106.65,357.33h134.27"/>
          </g>
          <g id="g451">
            <path id="path453" class="cls-2" d="M207.08,268l-22.2,134.27"/>
          </g>
          <g id="g455">
            <path id="path457" class="cls-2" d="M162.69,268l-22.2,134.27"/>
          </g>
          <g id="g459">
            <path id="path461" class="cls-2" d="M452,522.67v-49.09c0-20.02-16.28-36.24-36.36-36.24h-129.91c-20.08,0-36.35,16.23-36.35,36.24v129.51c0,20.02,16.28,36.24,36.35,36.24h71.37v33.33l43.17-33.33h15.37c20.08,0,36.36-16.23,36.36-36.24v-80.42Z"/>
          </g>
          <g id="g463">
            <path id="path465" class="cls-2" d="M350.69,582.34c31.26-16.57,47.46-30.67,47.46-52.52,0-30.13-36.91-37.67-47.46-15.07-12.05-23.35-47.46-15.07-47.46,15.07,0,21.85,16.2,35.95,47.46,52.52Z"/>
          </g>
        </g>
      </g>
    </g>
  </g>
</svg>